<svg width="16" height="16" viewBox="0 0 16 16" fill="none" xmlns="http://www.w3.org/2000/svg">
<g clip-path="url(#clip0_1_2)">
<path d="M15 11C14.4477 11 14 11.4477 14 12V13C14 13.5523 13.5523 14 13 14H3C2.44772 14 2 13.5523 2 13V3C2 2.44772 2.44772 2 3 2H4C4.55228 2 5 1.55228 5 1C5 0.447719 4.55228 0 4 0H3C1.34314 0 0 1.34314 0 3V13C0 14.6569 1.34314 16 3 16H13C14.6569 16 16 14.6569 16 13V12C16 11.4477 15.5523 11 15 11Z" fill="#0084FF"/>
<path d="M15.9981 0.805C15.9981 0.775 15.9981 0.745 15.9731 0.72C15.9648 0.686167 15.9548 0.652788 15.9431 0.62C15.9283 0.58576 15.9116 0.552374 15.8931 0.52C15.8931 0.52 15.8931 0.47 15.8531 0.445C15.7803 0.336217 15.6868 0.242783 15.5781 0.17L15.4981 0.125L15.4031 0.075L15.2981 0.045H15.2131C15.1433 0.022154 15.0712 0.00706302 14.9981 0L8.99805 0C8.44577 0 7.99805 0.447719 7.99805 1C7.99805 1.55228 8.44577 2 8.99805 2H12.5831L6.79305 7.795C6.40232 8.18573 6.40232 8.81927 6.79305 9.21C7.18379 9.60073 7.81732 9.60073 8.20805 9.21L13.9981 3.415V7C13.9981 7.55228 14.4458 8 14.9981 8C15.5503 8 15.9981 7.55228 15.9981 7V1C16.0044 0.935156 16.0044 0.869844 15.9981 0.805Z" fill="#0084FF"/>
</g>
<defs>
<clipPath id="clip0_1_2">
<rect width="16" height="16" fill="white"/>
</clipPath>
</defs>
</svg>
